<?xml version="1.0" encoding="UTF-8"?>
<!DOCTYPE svg PUBLIC "-//W3C//DTD SVG 1.1//EN" "http://www.w3.org/Graphics/SVG/1.1/DTD/svg11.dtd">
<!-- Creator: CorelDRAW 2020 (64-Bit) -->
<svg xmlns="http://www.w3.org/2000/svg" xml:space="preserve" width="0.918614in" height="0.326276in" version="1.1" style="shape-rendering:geometricPrecision; text-rendering:geometricPrecision; image-rendering:optimizeQuality; fill-rule:evenodd; clip-rule:evenodd"
viewBox="0 0 3609.36 1281.98"
 xmlns:xlink="http://www.w3.org/1999/xlink"
 xmlns:xodm="http://www.corel.com/coreldraw/odm/2003">
 <defs>
  <style type="text/css">
   <![CDATA[
    .fil1 {fill:#3C1400}
    .fil0 {fill:#3C1400;fill-rule:nonzero}
   ]]>
  </style>
 </defs>
 <g id="Layer_x0020_1">
  <metadata id="CorelCorpID_0Corel-Layer"/>
  <g id="Glyph_copy_2_1_">
   <path class="fil0" d="M3586.36 58.06c-23.88,-34.96 -64.04,-58.06 -109.34,-58.06l-1429 0c-44.35,0 -83.58,22.29 -107.65,56.04l824.75 687.69 821.24 -685.68z"/>
   <path class="fil0" d="M1915.69 173.25l0 976.39c0,72.78 59.56,132.34 132.34,132.34l1429 0c72.78,0 132.34,-59.56 132.34,-132.34l0 -972.9 -844.19 704.85 -849.48 -708.34z"/>
  </g>
  <path class="fil1" d="M1718.47 1031.38l-373.04 -221.84c190.02,1.75 310.4,27.81 373.04,8.94l0 212.9zm0 -284.46c-105.68,-15.18 -295.34,-9.88 -378.39,-12.02 -218.69,-5.63 -193.8,-46.69 -334.98,-124.8l713.37 23.36 0 113.47zm0 -193.08c-285.11,-14.22 -643.28,-2.34 -818.61,-23.37 -76.91,-9.24 -168.24,-78.6 -229.65,-117.29 205.75,-18.07 723.5,21.97 1048.26,36.01l0 104.65zm0 -189.7c-343.85,-14.76 -840.51,-24.02 -1016.33,-29.38 -184.59,-5.58 -246.33,-25.42 -364.68,-126.03l1381.02 46.64 0 108.76zm0 -188.69c-457.73,-16.75 -1055.31,-30.44 -1231.92,-36.51 -170.21,-5.8 -342.83,13.06 -486.55,-127.67l1718.47 56.6 0 107.57z"/>
 </g>
</svg>
