<?xml version="1.0" encoding="UTF-8"?>
<!DOCTYPE svg PUBLIC "-//W3C//DTD SVG 1.1//EN" "http://www.w3.org/Graphics/SVG/1.1/DTD/svg11.dtd">
<!-- Creator: CorelDRAW 2020 (64-Bit) -->
<svg xmlns="http://www.w3.org/2000/svg" xml:space="preserve" width="0.918614in" height="0.326276in" version="1.1" style="shape-rendering:geometricPrecision; text-rendering:geometricPrecision; image-rendering:optimizeQuality; fill-rule:evenodd; clip-rule:evenodd"
viewBox="0 0 498.69 177.13"
 xmlns:xlink="http://www.w3.org/1999/xlink"
 xmlns:xodm="http://www.corel.com/coreldraw/odm/2003">
 <defs>
  <style type="text/css">
   <![CDATA[
    .fil1 {fill:#F2DDB0}
    .fil0 {fill:#F2DDB0;fill-rule:nonzero}
   ]]>
  </style>
 </defs>
 <g id="Layer_x0020_1">
  <metadata id="CorelCorpID_0Corel-Layer"/>
  <g id="Glyph_copy_2_1_">
   <path class="fil0" d="M495.51 8.02c-3.3,-4.83 -8.85,-8.02 -15.11,-8.02l-197.44 0c-6.13,0 -11.55,3.08 -14.87,7.74l113.95 95.02 113.47 -94.74z"/>
   <path class="fil0" d="M264.68 23.94l0 134.9c0,10.06 8.23,18.28 18.28,18.28l197.44 0c10.06,0 18.28,-8.23 18.28,-18.28l0 -134.42 -116.64 97.39 -117.37 -97.87z"/>
  </g>
  <path class="fil1" d="M237.43 142.5l-51.54 -30.65c26.25,0.24 42.89,3.84 51.54,1.24l0 29.42zm0 -39.3c-14.6,-2.1 -40.81,-1.37 -52.28,-1.66 -30.21,-0.78 -26.78,-6.45 -46.28,-17.24l98.56 3.23 0 15.68zm0 -26.68c-39.39,-1.96 -88.88,-0.32 -113.1,-3.23 -10.63,-1.28 -23.25,-10.86 -31.73,-16.2 28.43,-2.5 99.96,3.03 144.83,4.98l0 14.46zm0 -26.21c-47.51,-2.04 -116.13,-3.32 -140.42,-4.06 -25.5,-0.77 -34.03,-3.51 -50.39,-17.41l190.81 6.44 0 15.03zm0 -26.07c-63.24,-2.31 -145.81,-4.21 -170.21,-5.04 -23.52,-0.8 -47.37,1.8 -67.22,-17.64l237.43 7.82 0 14.86z"/>
 </g>
</svg>
