<?xml version="1.0" encoding="UTF-8"?>
<!DOCTYPE svg PUBLIC "-//W3C//DTD SVG 1.1//EN" "http://www.w3.org/Graphics/SVG/1.1/DTD/svg11.dtd">
<!-- Creator: CorelDRAW 2020 (64-Bit) -->
<svg xmlns="http://www.w3.org/2000/svg" xml:space="preserve" width="0.180559in" height="0.180559in" version="1.1" style="shape-rendering:geometricPrecision; text-rendering:geometricPrecision; image-rendering:optimizeQuality; fill-rule:evenodd; clip-rule:evenodd"
viewBox="0 0 12.38 12.38"
 xmlns:xlink="http://www.w3.org/1999/xlink"
 xmlns:xodm="http://www.corel.com/coreldraw/odm/2003">
 <defs>
  <style type="text/css">
   <![CDATA[
    .str0 {stroke:#F2DDB0;stroke-width:0.95;stroke-miterlimit:2.61313}
    .fil0 {fill:none}
    .fil1 {fill:#F2DDB0}
   ]]>
  </style>
 </defs>
 <g id="Layer_x0020_1">
  <metadata id="CorelCorpID_0Corel-Layer"/>
  <g id="_2783502305328">
   <circle class="fil0 str0" cx="6.19" cy="6.19" r="5.71"/>
   <path class="fil1" d="M6.07 5.04c-1.79,-0.1 -2.71,-1.34 -3.02,-1.49 -0.28,0.68 -0.19,1.35 0.28,1.78 -0.02,0.01 -0.05,-0.01 -0.06,0.02l-0.34 0.06c-0.01,0 -0.04,0 -0.05,0.01 0.09,0.68 0.41,1.08 0.96,1.29 -0.24,0.14 -0.19,0.03 -0.42,0.15 0.33,0.8 0.56,0.62 1.23,1.01 -0.36,0.41 -1.27,0.54 -1.94,0.56 0.02,0.02 0.04,0.02 0.05,0.05l0.38 0.25c0.15,0.07 0.32,0.13 0.5,0.18 2.64,0.74 5.3,-0.66 5.37,-4.17 0.29,-0.25 0.5,-0.33 0.66,-0.76l-0.58 0.15c0.15,-0.21 0.31,-0.37 0.42,-0.71 -0.47,0.14 -0.68,0.37 -1.05,0.15 -0.36,-0.22 -0.61,-0.37 -1.17,-0.28 -0.88,0.15 -1.19,0.78 -1.22,1.74z"/>
  </g>
  <circle class="fil0 str0" cx="6.19" cy="6.19" r="5.71"/>
  <path class="fil1" d="M6.07 5.04c-1.79,-0.1 -2.71,-1.34 -3.02,-1.49 -0.28,0.68 -0.19,1.35 0.28,1.78 -0.02,0.01 -0.05,-0.01 -0.06,0.02l-0.34 0.06c-0.01,0 -0.04,0 -0.05,0.01 0.09,0.68 0.41,1.08 0.96,1.29 -0.24,0.14 -0.19,0.03 -0.42,0.15 0.33,0.8 0.56,0.62 1.23,1.01 -0.36,0.41 -1.27,0.54 -1.94,0.56 0.02,0.02 0.04,0.02 0.05,0.05l0.38 0.25c0.15,0.07 0.32,0.13 0.5,0.18 2.64,0.74 5.3,-0.66 5.37,-4.17 0.29,-0.25 0.5,-0.33 0.66,-0.76l-0.58 0.15c0.15,-0.21 0.31,-0.37 0.42,-0.71 -0.47,0.14 -0.68,0.37 -1.05,0.15 -0.36,-0.22 -0.61,-0.37 -1.17,-0.28 -0.88,0.15 -1.19,0.78 -1.22,1.74z"/>
  <circle class="fil1 str0" cx="6.19" cy="6.19" r="4.3"/>
 </g>
</svg>
