<?xml version="1.0" encoding="UTF-8" standalone="no"?>
<!-- Creator: CorelDRAW 2020 (64-Bit) -->

<svg
   xml:space="preserve"
   width="1.8749999in"
   height="1.5482988in"
   version="1.1"
   style="clip-rule:evenodd;fill-rule:evenodd;image-rendering:optimizeQuality;shape-rendering:geometricPrecision;text-rendering:geometricPrecision"
   viewBox="0 0 64.465109 53.237652"
   id="svg14"
   xmlns="http://www.w3.org/2000/svg"
   xmlns:svg="http://www.w3.org/2000/svg">
 <defs
   id="defs1"><style
     type="text/css"
     id="style1">
   <![CDATA[
    .str1 {stroke:white;stroke-width:0.24;stroke-miterlimit:2.61313}
    .str0 {stroke:#CC9A5C;stroke-width:0.1;stroke-miterlimit:2.61313}
    .fil0 {fill:#663300}
    .fil4 {fill:#B58B57}
    .fil5 {fill:#DEA054}
    .fil2 {fill:#663300;fill-rule:nonzero}
    .fil3 {fill:#CC9A5C;fill-rule:nonzero}
    .fil1 {fill:white;fill-rule:nonzero}
   ]]>
  </style></defs>
 <g
   id="Layer_x0020_1"
   transform="translate(-0.00404553,-2.02)">
  <metadata
   id="CorelCorpID_0Corel-Layer" />
  <polygon
   class="fil0"
   points="27.65,18.45 27.48,36 41.03,29.07 41.06,13.09 "
   id="polygon1"
   transform="matrix(1.5667349,0,0,1.5667349,0,-1.1448045)" /><path
   class="fil1"
   d="m 46.265682,28.435151 c 0.987043,-0.391684 1.974086,-0.783368 2.945462,-1.175052 0.955708,-0.391683 1.927084,-0.7677 2.867125,-1.143716 0.47002,0.940041 0.94004,1.864415 1.425728,2.788788 0.470021,0.924374 0.940041,1.83308 1.410062,2.757454 0.47002,-1.316058 0.940041,-2.616448 1.410061,-3.916838 0.470021,-1.30039 0.924374,-2.585112 1.394394,-3.854168 0.877372,-0.344681 1.739076,-0.689363 2.60078,-1.034045 0.846037,-0.344681 1.692074,-0.673696 2.538111,-1.00271 -0.783368,1.989753 -1.582403,4.010841 -2.381437,6.047597 -0.799035,2.052423 -1.613737,4.120513 -2.444107,6.219937 0.861704,1.441396 1.723409,2.867125 2.569445,4.277187 0.846037,1.410061 1.692074,2.804455 2.522444,4.183182 -0.877372,0.438686 -1.739076,0.893039 -2.632115,1.347392 -0.893039,0.454353 -1.786078,0.908706 -2.694784,1.378727 -0.501355,-0.893039 -1.018378,-1.801745 -1.519733,-2.710452 -0.517022,-0.908706 -1.018378,-1.83308 -1.5354,-2.757453 -0.548357,1.441396 -1.096715,2.882792 -1.660739,4.324188 -0.564025,1.457064 -1.128049,2.929794 -1.692074,4.402525 -0.971375,0.501355 -1.958418,1.002711 -2.945461,1.504066 -1.002711,0.517022 -2.005421,1.034045 -3.023799,1.551067 1.049713,-2.522443 2.083758,-5.013551 3.102135,-7.473325 1.018378,-2.428439 2.021088,-4.841211 3.008131,-7.222648 -0.861704,-1.378727 -1.723408,-2.773121 -2.60078,-4.183182 -0.877371,-1.410062 -1.754743,-2.851458 -2.647782,-4.292854 z"
   id="path1"
   style="stroke-width:1.56673" /><path
   class="fil0"
   d="m 33.684801,30.56591 -5.49924,-7.175646 c 4.825544,1.660739 6.595954,3.321478 7.896344,1.59807 -1.112382,-0.940041 -5.593244,-2.271766 -7.316652,-2.89846 -3.775831,-1.363059 -2.976796,-1.911416 -4.747207,-4.057843 l 12.330204,4.559198 c 2.569445,0.987043 2.036755,1.018378 3.619158,-0.109671 -4.825544,-2.3031 -13.552257,-4.731539 -17.061744,-6.423613 -1.269055,-0.611027 -2.24043,-2.3031 -2.961129,-3.321478 4.96655,1.175051 18.487472,7.20698 22.122297,8.131354 1.159384,0.29768 1.30039,0.188008 2.381437,-0.454353 C 42.474184,19.16008 25.71012,13.253489 21.213591,11.59275 18.033119,10.417699 17.124413,9.7283358 15.965029,7.3312314 l 30.31632,11.2648236 c 1.880082,0.720698 2.224764,0.908707 3.681827,0.06267 C 48.788125,17.656014 24.190387,8.8666316 19.20817,7.0178844 16.278376,5.9211699 13.082237,5.2318066 11.828849,2.02 l 42.31751,15.683016 c -0.59536,3.478152 -1.927084,1.582403 -7.708336,4.010842 -4.480862,1.880082 -9.369075,4.43386 -12.737555,8.836385 z"
   id="path11"
   style="stroke-width:1.56673" /><polygon
   class="fil4"
   points="27.65,18.45 27.45,35.98 10.68,27.77 10.36,11.8 "
   id="polygon11"
   transform="matrix(1.5667349,0,0,1.5667349,0,-1.1448045)" /><path
   class="fil0"
   d="m 21.855952,42.175416 -5.49924,-7.175646 c 4.825544,1.660739 6.595954,3.321478 7.896344,1.59807 -1.112381,-0.940041 -5.593243,-2.271766 -7.316652,-2.89846 -3.775831,-1.363059 -2.976796,-1.911417 -4.747206,-4.057843 l 12.330203,4.559198 c 2.569446,0.987043 2.036756,1.018378 3.619158,-0.109671 C 23.313016,31.787963 14.586302,29.359524 11.076816,27.667451 9.8077606,27.056424 8.8363849,25.36435 8.1156869,24.345973 c 4.9665501,1.175051 18.4874721,7.20698 22.1222971,8.131354 1.159384,0.297679 1.30039,0.188008 2.381437,-0.454353 C 30.645335,30.769586 13.881271,24.862995 9.3847421,23.202256 6.2042703,22.027205 5.295564,21.337841 4.1361802,18.940737 L 34.452501,30.205561 c 1.880082,0.720698 2.224763,0.908706 3.681827,0.06267 C 36.959277,29.26552 12.361538,20.476137 7.3793214,18.62739 4.4495272,17.530676 1.2533879,16.85698 0,13.629506 l 42.31751,15.683016 c -0.595359,3.478152 -1.927084,1.582402 -7.708336,4.010842 -4.480862,1.880081 -9.369075,4.433859 -12.737555,8.836384 z"
   id="path12"
   style="stroke-width:1.56673" /><path
   class="fil1 str1"
   d="m 26.979175,39.981987 c 0.438686,0.156673 0.877372,0.313347 1.331725,0.47002 -0.01567,1.034045 -0.01567,2.068091 -0.03133,3.086468 0,0.485688 0.01567,0.814702 0.047,0.955709 0.06267,0.250677 0.188008,0.501355 0.391684,0.720698 0.203676,0.219342 0.485688,0.391683 0.861704,0.517022 0.376017,0.141006 0.658029,0.172341 0.846037,0.109672 0.188008,-0.06267 0.29768,-0.188009 0.344682,-0.376017 0.047,-0.172341 0.06267,-0.501355 0.07834,-0.955708 0.01567,-1.049713 0.01567,-2.115092 0.03133,-3.164805 0.438686,0.172341 0.893039,0.313347 1.36306,0.470021 -0.01567,1.00271 -0.03134,2.021088 -0.047,3.023798 -0.01567,0.689364 -0.06267,1.159384 -0.125338,1.410062 -0.07834,0.266345 -0.219343,0.454353 -0.407351,0.564024 -0.188009,0.125339 -0.454354,0.172341 -0.767701,0.172341 -0.329014,0 -0.736365,-0.094 -1.269055,-0.29768 -0.611026,-0.219343 -1.096714,-0.454353 -1.410061,-0.70503 -0.313347,-0.250678 -0.564025,-0.501355 -0.752033,-0.7677 -0.188008,-0.266345 -0.29768,-0.517023 -0.360349,-0.767701 -0.07834,-0.360349 -0.125339,-0.846036 -0.125339,-1.488398 0,-1.00271 0.01567,-2.021088 0.01567,-3.023798 z m 6.26694,6.141601 c 0.438686,0.125339 0.893039,0.250677 1.331725,0.376016 0.07834,0.407351 0.23501,0.736366 0.47002,1.002711 0.23501,0.266344 0.564025,0.47002 0.987043,0.626694 0.438686,0.156673 0.783367,0.203675 1.00271,0.125338 0.219343,-0.07834 0.344682,-0.219343 0.344682,-0.423018 0,-0.141006 -0.047,-0.282012 -0.141006,-0.407351 -0.094,-0.125339 -0.250678,-0.266345 -0.485688,-0.423019 -0.156673,-0.109671 -0.517022,-0.329014 -1.081047,-0.642361 -0.736365,-0.423018 -1.237721,-0.799035 -1.5354,-1.143716 -0.407351,-0.470021 -0.611027,-0.924374 -0.59536,-1.394395 0,-0.297679 0.109672,-0.532689 0.29768,-0.720698 0.203676,-0.188008 0.485688,-0.282012 0.846037,-0.282012 0.376016,0 0.814702,0.07834 1.347392,0.266345 0.861704,0.29768 1.504066,0.689363 1.927084,1.175051 0.423018,0.485688 0.642361,1.002711 0.658029,1.551068 -0.470021,-0.156674 -0.940041,-0.29768 -1.394394,-0.454353 -0.047,-0.329015 -0.172341,-0.579692 -0.360349,-0.783368 -0.188009,-0.203675 -0.485688,-0.376016 -0.861705,-0.517022 -0.391683,-0.141006 -0.70503,-0.172341 -0.940041,-0.125339 -0.141006,0.047 -0.219343,0.141006 -0.23501,0.282012 0,0.125339 0.06267,0.282013 0.203676,0.423019 0.172341,0.188008 0.595359,0.47002 1.253388,0.846037 0.673696,0.376016 1.159383,0.689363 1.47273,0.955708 0.329015,0.266345 0.579692,0.548357 0.752033,0.861704 0.172341,0.313347 0.266345,0.658029 0.250678,1.018378 -0.01567,0.329014 -0.125339,0.595359 -0.360349,0.799035 -0.235011,0.203675 -0.548357,0.313346 -0.940041,0.297679 -0.407351,0 -0.893039,-0.125339 -1.488398,-0.344682 -0.861705,-0.313347 -1.504066,-0.720698 -1.958419,-1.222053 -0.454353,-0.501355 -0.705031,-1.081047 -0.799035,-1.754743 z"
   id="path13" /><polygon
   class="fil5"
   points="24.56,7.31 41.15,13.09 27.65,18.46 10.36,11.8 "
   id="polygon13"
   transform="matrix(1.5667349,0,0,1.5667349,0,-1.1448045)" />
  
 </g>
</svg>
