<?xml version="1.0" encoding="UTF-8"?>
<!DOCTYPE svg PUBLIC "-//W3C//DTD SVG 1.1//EN" "http://www.w3.org/Graphics/SVG/1.1/DTD/svg11.dtd">
<!-- Creator: CorelDRAW 2020 (64-Bit) -->
<svg xmlns="http://www.w3.org/2000/svg" xml:space="preserve" width="0.180551in" height="0.180559in" version="1.1" style="shape-rendering:geometricPrecision; text-rendering:geometricPrecision; image-rendering:optimizeQuality; fill-rule:evenodd; clip-rule:evenodd"
viewBox="0 0 12.47 12.47"
 xmlns:xlink="http://www.w3.org/1999/xlink"
 xmlns:xodm="http://www.corel.com/coreldraw/odm/2003">
 <defs>
  <style type="text/css">
   <![CDATA[
    .str0 {stroke:#F2DDB0;stroke-width:0.96;stroke-miterlimit:2.61313}
    .fil0 {fill:none}
    .fil1 {fill:#F2DDB0}
   ]]>
  </style>
 </defs>
 <g id="Layer_x0020_1">
  <metadata id="CorelCorpID_0Corel-Layer"/>
  <g id="_2783556516096">
   <circle class="fil0 str0" cx="6.24" cy="6.24" r="5.76"/>
   <path class="fil1" d="M6.12 5.08c-1.81,-0.1 -2.73,-1.35 -3.04,-1.5 -0.28,0.69 -0.2,1.36 0.29,1.8 -0.02,0.01 -0.05,-0.01 -0.06,0.02l-0.34 0.06c-0.01,0 -0.04,0 -0.05,0.01 0.09,0.68 0.41,1.09 0.97,1.3 -0.24,0.14 -0.2,0.03 -0.42,0.15 0.34,0.8 0.57,0.62 1.24,1.02 -0.36,0.41 -1.28,0.55 -1.96,0.57 0.02,0.02 0.04,0.02 0.05,0.05l0.38 0.25c0.15,0.07 0.32,0.13 0.5,0.18 2.66,0.75 5.34,-0.67 5.41,-4.2 0.29,-0.25 0.5,-0.33 0.67,-0.77l-0.58 0.15c0.15,-0.22 0.31,-0.37 0.42,-0.72 -0.47,0.14 -0.68,0.37 -1.05,0.15 -0.36,-0.22 -0.62,-0.37 -1.18,-0.28 -0.89,0.15 -1.2,0.79 -1.23,1.76z"/>
  </g>
 </g>
</svg>
