<?xml version="1.0" encoding="UTF-8"?>
<!DOCTYPE svg PUBLIC "-//W3C//DTD SVG 1.1//EN" "http://www.w3.org/Graphics/SVG/1.1/DTD/svg11.dtd">
<!-- Creator: CorelDRAW 2020 (64-Bit) -->
<svg xmlns="http://www.w3.org/2000/svg" xml:space="preserve" width="0.180551in" height="0.180551in" version="1.1" style="shape-rendering:geometricPrecision; text-rendering:geometricPrecision; image-rendering:optimizeQuality; fill-rule:evenodd; clip-rule:evenodd"
viewBox="0 0 17.05 17.05"
 xmlns:xlink="http://www.w3.org/1999/xlink"
 xmlns:xodm="http://www.corel.com/coreldraw/odm/2003">
 <defs>
  <style type="text/css">
   <![CDATA[
    .str0 {stroke:#3C1400;stroke-width:1.31;stroke-miterlimit:2.61313}
    .fil1 {fill:none}
    .fil0 {fill:#3C1400}
   ]]>
  </style>
 </defs>
 <g id="Layer_x0020_1">
  <metadata id="CorelCorpID_0Corel-Layer"/>
  <g id="_2783500166512">
   <path class="fil0" d="M8.36 6.94c-2.47,-0.14 -3.73,-1.85 -4.16,-2.05 -0.39,0.94 -0.27,1.86 0.39,2.46 -0.02,0.01 -0.07,-0.01 -0.08,0.02l-0.47 0.08c-0.01,0 -0.05,0 -0.08,0.01 0.13,0.94 0.56,1.49 1.32,1.77 -0.33,0.19 -0.27,0.05 -0.57,0.2 0.46,1.1 0.78,0.85 1.69,1.39 -0.49,0.57 -1.75,0.75 -2.68,0.77 0.02,0.02 0.06,0.03 0.07,0.07l0.53 0.35c0.21,0.1 0.44,0.18 0.68,0.25 3.63,1.03 7.3,-0.91 7.4,-5.74 0.4,-0.35 0.69,-0.45 0.91,-1.05l-0.8 0.21c0.21,-0.29 0.43,-0.51 0.58,-0.98 -0.65,0.2 -0.93,0.51 -1.44,0.2 -0.5,-0.3 -0.84,-0.51 -1.61,-0.39 -1.22,0.2 -1.64,1.08 -1.69,2.4z"/>
   <circle class="fil1 str0" cx="8.53" cy="8.53" r="7.87"/>
  </g>
 </g>
</svg>
