<?xml version="1.0" encoding="UTF-8"?>
<!DOCTYPE svg PUBLIC "-//W3C//DTD SVG 1.1//EN" "http://www.w3.org/Graphics/SVG/1.1/DTD/svg11.dtd">
<!-- Creator: CorelDRAW 2020 (64-Bit) -->
<svg xmlns="http://www.w3.org/2000/svg" xml:space="preserve" width="2.51735in" height="1.04698in" version="1.1" style="shape-rendering:geometricPrecision; text-rendering:geometricPrecision; image-rendering:optimizeQuality; fill-rule:evenodd; clip-rule:evenodd"
viewBox="0 0 86.55 36"
 xmlns:xlink="http://www.w3.org/1999/xlink"
 xmlns:xodm="http://www.corel.com/coreldraw/odm/2003">
 <defs>
  <style type="text/css">
   <![CDATA[
    .str1 {stroke:white;stroke-width:0.24;stroke-miterlimit:2.61313}
    .str0 {stroke:#CC9A5C;stroke-width:0.1;stroke-miterlimit:2.61313}
    .fil0 {fill:#663300}
    .fil4 {fill:#B58B57}
    .fil5 {fill:#DEA054}
    .fil2 {fill:#663300;fill-rule:nonzero}
    .fil3 {fill:#CC9A5C;fill-rule:nonzero}
    .fil1 {fill:white;fill-rule:nonzero}
   ]]>
  </style>
 </defs>
 <g id="Layer_x0020_1">
  <metadata id="CorelCorpID_0Corel-Layer"/>
  <g id="_2263675099632">
   <polygon class="fil0" points="41.06,13.09 27.65,18.45 27.48,36 41.03,29.07 "/>
   <path class="fil1" d="M29.53 18.88c0.63,-0.25 1.26,-0.5 1.88,-0.75 0.61,-0.25 1.23,-0.49 1.83,-0.73 0.3,0.6 0.6,1.19 0.91,1.78 0.3,0.59 0.6,1.17 0.9,1.76 0.3,-0.84 0.6,-1.67 0.9,-2.5 0.3,-0.83 0.59,-1.65 0.89,-2.46 0.56,-0.22 1.11,-0.44 1.66,-0.66 0.54,-0.22 1.08,-0.43 1.62,-0.64 -0.5,1.27 -1.01,2.56 -1.52,3.86 -0.51,1.31 -1.03,2.63 -1.56,3.97 0.55,0.92 1.1,1.83 1.64,2.73 0.54,0.9 1.08,1.79 1.61,2.67 -0.56,0.28 -1.11,0.57 -1.68,0.86 -0.57,0.29 -1.14,0.58 -1.72,0.88 -0.32,-0.57 -0.65,-1.15 -0.97,-1.73 -0.33,-0.58 -0.65,-1.17 -0.98,-1.76 -0.35,0.92 -0.7,1.84 -1.06,2.76 -0.36,0.93 -0.72,1.87 -1.08,2.81 -0.62,0.32 -1.25,0.64 -1.88,0.96 -0.64,0.33 -1.28,0.66 -1.93,0.99 0.67,-1.61 1.33,-3.2 1.98,-4.77 0.65,-1.55 1.29,-3.09 1.92,-4.61 -0.55,-0.88 -1.1,-1.77 -1.66,-2.67 -0.56,-0.9 -1.12,-1.82 -1.69,-2.74z"/>
   <path class="fil2" d="M70.33 14.53l0 -1.14c0.45,-0.23 0.9,-0.46 1.35,-0.69l0 1.14 -1.35 0.69z"/>
   <path class="fil3 str0" d="M81.37 7.22c1.27,-0.65 2.55,-1.3 3.82,-1.95 0,0.51 0,1.02 0,1.52 -1.27,0.65 -2.55,1.3 -3.82,1.95 -0.64,0.32 -0.96,0.83 -0.96,1.5 0,0.51 0,1.02 0,1.52 0,0.68 0.32,0.85 0.96,0.53 0.8,-0.41 1.59,-0.81 2.39,-1.22 0,-0.34 0,-0.68 0,-1.02 -0.64,0.32 -1.27,0.65 -1.91,0.97 0,-0.51 0,-1.02 0,-1.52 1.11,-0.57 2.23,-1.14 3.34,-1.7 0,1.35 0,2.71 0,4.06 -1.27,0.65 -2.55,1.3 -3.82,1.95 -1.59,0.81 -2.39,0.37 -2.39,-1.32 0,-0.51 0,-1.02 0,-1.52 0,-1.69 0.8,-2.94 2.39,-3.75z"/>
   <path class="fil2" d="M73.72 13.92c0,1.26 0,2.52 0,3.79 -0.48,0.24 -0.96,0.49 -1.43,0.73 0,-2.34 0,-4.69 0,-7.03 1.59,0.59 3.18,1.19 4.78,1.78 0,-1.26 0,-2.52 0,-3.79 0.48,-0.24 0.96,-0.49 1.43,-0.73 0,2.34 0,4.69 0,7.03 -1.59,-0.59 -3.18,-1.19 -4.78,-1.78z"/>
   <path class="fil2" d="M70.38 19.41l0 -4.48 1.43 -0.73 0 4.48c-0.48,0.24 -0.96,0.49 -1.43,0.73z"/>
   <path class="fil3" d="M70.05 12.98c-1.27,2.99 -2.54,5.97 -3.81,8.96 -1.27,-1.69 -2.54,-3.38 -3.81,-5.08 0.55,-0.28 1.1,-0.56 1.65,-0.84 0.72,0.96 1.44,1.92 2.16,2.87 0.72,-1.69 1.44,-3.38 2.16,-5.07 0.55,-0.28 1.1,-0.56 1.65,-0.84z"/>
   <path class="fil3" d="M56.45 22.45c0,-1.69 0.8,-2.94 2.39,-3.75 0.48,-0.24 0.96,-0.49 1.43,-0.73 1.59,-0.81 2.39,-0.37 2.39,1.32 0,0.51 0,1.02 0,1.52 0,1.69 -0.8,2.94 -2.39,3.75 -0.48,0.24 -0.96,0.49 -1.43,0.73 -1.59,0.81 -2.39,0.37 -2.39,-1.32 0,-0.51 0,-1.02 0,-1.52zm2.39 -2.23c-0.64,0.32 -0.96,0.83 -0.96,1.5 0,0.51 0,1.02 0,1.52 0,0.68 0.32,0.85 0.96,0.53 0.48,-0.24 0.96,-0.49 1.43,-0.73 0.64,-0.32 0.96,-0.82 0.96,-1.5 0,-0.51 0,-1.02 0,-1.52 0,-0.68 -0.32,-0.85 -0.96,-0.53 -0.48,0.24 -0.96,0.49 -1.43,0.73z"/>
   <path class="fil3 str0" d="M52.77 24.15c0.01,0 0.01,0.01 0.02,0.01 0.41,-0.59 0.82,-1.18 1.23,-1.76 0.4,-0.58 0.8,-1.15 1.2,-1.71 -0.04,1.06 -0.08,2.1 -0.13,3.12 -0.04,1.01 -0.08,2 -0.12,2.97 -0.34,0.17 -0.67,0.34 -1.02,0.52 0.02,-0.53 0.03,-1.07 0.05,-1.61 0.02,-0.54 0.03,-1.09 0.05,-1.65 -0.21,0.31 -0.43,0.62 -0.65,0.94 -0.22,0.32 -0.44,0.63 -0.65,0.95 -0.01,-0 -0.01,-0.01 -0.02,-0.01 -0.01,0.01 -0.01,0.02 -0.02,0.03 -0.21,-0.12 -0.43,-0.23 -0.64,-0.35 -0.22,-0.12 -0.44,-0.24 -0.67,-0.36 -0.01,0.58 -0.01,1.15 -0.02,1.72 -0.01,0.56 -0.01,1.12 -0.02,1.67 -0.38,0.2 -0.77,0.4 -1.17,0.6 0,-1.04 0,-2.11 0,-3.19 0,-1.1 0,-2.23 0,-3.37 0.45,0.27 0.89,0.53 1.32,0.79 0.42,0.25 0.83,0.49 1.23,0.73 0.01,-0.01 0.01,-0.02 0.02,-0.03z"/>
   <path class="fil1" d="M39.93 17.37l3.76 -1.9c0.82,-0.41 1.43,-0.53 1.84,-0.34 0.41,0.19 0.61,0.65 0.61,1.39 0,0.75 -0.22,1.46 -0.67,2.1 -0.44,0.65 -1.13,1.21 -2.04,1.67l-1.24 0.63 0 2.76 -2.27 1.15 0 -7.45zm2.27 2.04l0.56 -0.28c0.44,-0.22 0.75,-0.46 0.93,-0.7 0.18,-0.24 0.27,-0.49 0.27,-0.73 0,-0.23 -0.08,-0.39 -0.23,-0.48 -0.15,-0.09 -0.44,-0.02 -0.87,0.2l-0.65 0.33 0 1.66z"/>
   <path class="fil2" d="M40.41 17.46l3.83 -1.9c0.83,-0.41 1.46,-0.53 1.87,-0.34 0.41,0.19 0.62,0.65 0.62,1.39 0,0.75 -0.23,1.46 -0.68,2.1 -0.45,0.65 -1.14,1.21 -2.07,1.67l-1.26 0.63 0 2.76 -2.31 1.15 0 -7.45zm2.31 2.04l0.57 -0.28c0.45,-0.22 0.76,-0.46 0.94,-0.7 0.18,-0.24 0.27,-0.49 0.27,-0.73 0,-0.23 -0.08,-0.39 -0.24,-0.48 -0.16,-0.09 -0.45,-0.02 -0.88,0.2l-0.66 0.33 0 1.66zm5.25 1.66l0 -7.45 3.84 -1.91c0.71,-0.35 1.26,-0.56 1.63,-0.63 0.38,-0.07 0.68,0.01 0.91,0.23 0.23,0.22 0.35,0.56 0.35,1.04 0,0.41 -0.09,0.81 -0.27,1.2 -0.18,0.39 -0.42,0.75 -0.73,1.09 -0.2,0.22 -0.47,0.45 -0.81,0.7 0.27,-0.04 0.47,-0.05 0.6,-0.02 0.08,0.02 0.21,0.09 0.37,0.21 0.16,0.12 0.27,0.22 0.32,0.3l1.12 1.6 -2.6 1.29 -1.23 -1.66c-0.16,-0.22 -0.29,-0.34 -0.42,-0.37 -0.17,-0.03 -0.36,0.01 -0.57,0.11l-0.2 0.1 0 3.02 -2.31 1.15zm2.31 -5.57l0.97 -0.48c0.1,-0.05 0.31,-0.19 0.61,-0.41 0.15,-0.11 0.28,-0.25 0.37,-0.42 0.1,-0.17 0.15,-0.34 0.15,-0.51 0,-0.24 -0.08,-0.39 -0.23,-0.44 -0.15,-0.05 -0.44,0.02 -0.86,0.23l-1.01 0.5 0 1.52zm5.75 -5.89l6.16 -3.06 0 1.59 -3.85 1.91 0 1.19 3.57 -1.77 0 1.52 -3.57 1.77 0 1.47 3.96 -1.97 0 1.69 -6.28 3.12 0 -7.45zm7.12 1.45l2.19 -1.22c0.05,0.33 0.14,0.55 0.29,0.66 0.24,0.18 0.58,0.16 1.02,-0.05 0.33,-0.16 0.58,-0.37 0.76,-0.61 0.18,-0.24 0.27,-0.47 0.27,-0.67 0,-0.19 -0.08,-0.32 -0.25,-0.39 -0.17,-0.07 -0.56,-0.02 -1.18,0.15 -1.01,0.28 -1.73,0.33 -2.16,0.17 -0.43,-0.16 -0.65,-0.53 -0.65,-1.11 0,-0.38 0.11,-0.8 0.33,-1.25 0.22,-0.45 0.55,-0.88 1,-1.3 0.45,-0.42 1.06,-0.82 1.83,-1.2 0.95,-0.47 1.68,-0.66 2.18,-0.55 0.5,0.11 0.8,0.52 0.89,1.25l-2.16 1.2c-0.06,-0.31 -0.18,-0.5 -0.36,-0.56 -0.19,-0.06 -0.44,-0.01 -0.76,0.15 -0.27,0.13 -0.47,0.29 -0.61,0.47 -0.14,0.18 -0.2,0.35 -0.2,0.52 0,0.12 0.06,0.2 0.16,0.24 0.11,0.05 0.36,0.01 0.77,-0.11 1.01,-0.28 1.73,-0.42 2.16,-0.41 0.44,0.01 0.75,0.12 0.95,0.35 0.2,0.23 0.3,0.55 0.3,0.96 0,0.48 -0.13,0.98 -0.4,1.52 -0.27,0.53 -0.63,1.02 -1.11,1.47 -0.47,0.44 -1.07,0.84 -1.79,1.2 -1.27,0.63 -2.14,0.82 -2.63,0.58 -0.49,-0.25 -0.76,-0.73 -0.83,-1.45zm7.52 -3.74l2.19 -1.22c0.05,0.33 0.14,0.55 0.29,0.66 0.24,0.18 0.58,0.16 1.02,-0.05 0.33,-0.16 0.58,-0.37 0.76,-0.61 0.18,-0.24 0.27,-0.47 0.27,-0.67 0,-0.19 -0.08,-0.32 -0.25,-0.39 -0.17,-0.07 -0.56,-0.02 -1.18,0.15 -1.01,0.28 -1.73,0.33 -2.16,0.17 -0.43,-0.16 -0.65,-0.53 -0.65,-1.11 0,-0.38 0.11,-0.8 0.33,-1.25 0.22,-0.45 0.55,-0.88 1,-1.3 0.45,-0.42 1.06,-0.82 1.83,-1.2 0.95,-0.47 1.68,-0.66 2.18,-0.55 0.5,0.11 0.8,0.52 0.89,1.25l-2.16 1.2c-0.06,-0.31 -0.18,-0.5 -0.36,-0.56 -0.19,-0.06 -0.44,-0.01 -0.76,0.15 -0.27,0.13 -0.47,0.29 -0.61,0.47 -0.14,0.18 -0.2,0.35 -0.2,0.52 0,0.12 0.06,0.2 0.16,0.24 0.11,0.05 0.36,0.01 0.77,-0.11 1.01,-0.28 1.73,-0.42 2.16,-0.41 0.44,0.01 0.75,0.12 0.95,0.35 0.2,0.23 0.3,0.55 0.3,0.96 0,0.48 -0.13,0.98 -0.4,1.52 -0.27,0.53 -0.63,1.02 -1.11,1.47 -0.47,0.44 -1.07,0.84 -1.79,1.2 -1.27,0.63 -2.14,0.82 -2.63,0.58 -0.49,-0.25 -0.76,-0.73 -0.83,-1.45z"/>
   <path class="fil0" d="M21.5 20.24l-3.51 -4.58c3.08,1.06 4.21,2.12 5.04,1.02 -0.71,-0.6 -3.57,-1.45 -4.67,-1.85 -2.41,-0.87 -1.9,-1.22 -3.03,-2.59l7.87 2.91c1.64,0.63 1.3,0.65 2.31,-0.07 -3.08,-1.47 -8.65,-3.02 -10.89,-4.1 -0.81,-0.39 -1.43,-1.47 -1.89,-2.12 3.17,0.75 11.8,4.6 14.12,5.19 0.74,0.19 0.83,0.12 1.52,-0.29 -1.26,-0.8 -11.96,-4.57 -14.83,-5.63 -2.03,-0.75 -2.61,-1.19 -3.35,-2.72l19.35 7.19c1.2,0.46 1.42,0.58 2.35,0.04 -0.75,-0.64 -16.45,-6.25 -19.63,-7.43 -1.87,-0.7 -3.91,-1.14 -4.71,-3.19l27.01 10.01c-0.38,2.22 -1.23,1.01 -4.92,2.56 -2.86,1.2 -5.98,2.83 -8.13,5.64z"/>
   <polygon class="fil4" points="10.36,11.8 27.65,18.45 27.45,35.98 10.68,27.77 "/>
   <path class="fil0" d="M13.95 27.65l-3.51 -4.58c3.08,1.06 4.21,2.12 5.04,1.02 -0.71,-0.6 -3.57,-1.45 -4.67,-1.85 -2.41,-0.87 -1.9,-1.22 -3.03,-2.59l7.87 2.91c1.64,0.63 1.3,0.65 2.31,-0.07 -3.08,-1.47 -8.65,-3.02 -10.89,-4.1 -0.81,-0.39 -1.43,-1.47 -1.89,-2.12 3.17,0.75 11.8,4.6 14.12,5.19 0.74,0.19 0.83,0.12 1.52,-0.29 -1.26,-0.8 -11.96,-4.57 -14.83,-5.63 -2.03,-0.75 -2.61,-1.19 -3.35,-2.72l19.35 7.19c1.2,0.46 1.42,0.58 2.35,0.04 -0.75,-0.64 -16.45,-6.25 -19.63,-7.43 -1.87,-0.7 -3.91,-1.13 -4.71,-3.19l27.01 10.01c-0.38,2.22 -1.23,1.01 -4.92,2.56 -2.86,1.2 -5.98,2.83 -8.13,5.64z"/>
   <path class="fil1 str1" d="M17.22 26.25c0.28,0.1 0.56,0.2 0.85,0.3 -0.01,0.66 -0.01,1.32 -0.02,1.97 -0,0.31 0.01,0.52 0.03,0.61 0.04,0.16 0.12,0.32 0.25,0.46 0.13,0.14 0.31,0.25 0.55,0.33 0.24,0.09 0.42,0.11 0.54,0.07 0.12,-0.04 0.19,-0.12 0.22,-0.24 0.03,-0.11 0.04,-0.32 0.05,-0.61 0.01,-0.67 0.01,-1.35 0.02,-2.02 0.28,0.11 0.57,0.2 0.87,0.3 -0.01,0.64 -0.02,1.29 -0.03,1.93 -0.01,0.44 -0.04,0.74 -0.08,0.9 -0.05,0.17 -0.14,0.29 -0.26,0.36 -0.12,0.08 -0.29,0.11 -0.49,0.11 -0.21,-0 -0.47,-0.06 -0.81,-0.19 -0.39,-0.14 -0.7,-0.29 -0.9,-0.45 -0.2,-0.16 -0.36,-0.32 -0.48,-0.49 -0.12,-0.17 -0.19,-0.33 -0.23,-0.49 -0.05,-0.23 -0.08,-0.54 -0.08,-0.95 0,-0.64 0.01,-1.29 0.01,-1.93zm4 3.92c0.28,0.08 0.57,0.16 0.85,0.24 0.05,0.26 0.15,0.47 0.3,0.64 0.15,0.17 0.36,0.3 0.63,0.4 0.28,0.1 0.5,0.13 0.64,0.08 0.14,-0.05 0.22,-0.14 0.22,-0.27 0,-0.09 -0.03,-0.18 -0.09,-0.26 -0.06,-0.08 -0.16,-0.17 -0.31,-0.27 -0.1,-0.07 -0.33,-0.21 -0.69,-0.41 -0.47,-0.27 -0.79,-0.51 -0.98,-0.73 -0.26,-0.3 -0.39,-0.59 -0.38,-0.89 0,-0.19 0.07,-0.34 0.19,-0.46 0.13,-0.12 0.31,-0.18 0.54,-0.18 0.24,-0 0.52,0.05 0.86,0.17 0.55,0.19 0.96,0.44 1.23,0.75 0.27,0.31 0.41,0.64 0.42,0.99 -0.3,-0.1 -0.6,-0.19 -0.89,-0.29 -0.03,-0.21 -0.11,-0.37 -0.23,-0.5 -0.12,-0.13 -0.31,-0.24 -0.55,-0.33 -0.25,-0.09 -0.45,-0.11 -0.6,-0.08 -0.09,0.03 -0.14,0.09 -0.15,0.18 -0,0.08 0.04,0.18 0.13,0.27 0.11,0.12 0.38,0.3 0.8,0.54 0.43,0.24 0.74,0.44 0.94,0.61 0.21,0.17 0.37,0.35 0.48,0.55 0.11,0.2 0.17,0.42 0.16,0.65 -0.01,0.21 -0.08,0.38 -0.23,0.51 -0.15,0.13 -0.35,0.2 -0.6,0.19 -0.26,-0 -0.57,-0.08 -0.95,-0.22 -0.55,-0.2 -0.96,-0.46 -1.25,-0.78 -0.29,-0.32 -0.45,-0.69 -0.51,-1.12z"/>
   <polygon class="fil5" points="10.36,11.8 24.56,7.31 41.15,13.09 27.65,18.46 "/>
  </g>
  <path class="fil2" d="M52.73 32.63l-1.14 -1.31 0.27 -0.12 0.63 0.77 0.23 0.29c-0,-0.02 -0.02,-0.13 -0.06,-0.35l-0.16 -1 0.26 -0.12 0.62 0.78 0.2 0.26 -0.04 -0.33 -0.13 -0.99 0.25 -0.11 0.2 1.73 -0.27 0.12 -0.65 -0.8 -0.18 -0.23 0.21 1.31 -0.27 0.12zm2.11 -0.94l-1.14 -1.31 0.27 -0.12 0.63 0.77 0.23 0.29c-0,-0.02 -0.02,-0.13 -0.06,-0.35l-0.16 -1 0.26 -0.12 0.62 0.78 0.2 0.26 -0.04 -0.33 -0.13 -0.99 0.25 -0.11 0.2 1.73 -0.27 0.12 -0.65 -0.8 -0.18 -0.23 0.21 1.31 -0.27 0.12zm2.11 -0.94l-1.14 -1.31 0.27 -0.12 0.63 0.77 0.23 0.29c-0,-0.02 -0.02,-0.13 -0.06,-0.35l-0.16 -1 0.26 -0.12 0.62 0.78 0.2 0.26 -0.04 -0.33 -0.13 -0.99 0.25 -0.11 0.2 1.73 -0.27 0.12 -0.65 -0.8 -0.18 -0.23 0.21 1.31 -0.27 0.12zm1.75 -0.78l-0.13 -0.29 0.29 -0.13 0.13 0.29 -0.29 0.13zm1.73 -0.77l-0.1 -0.23c-0.04,0.22 -0.16,0.38 -0.37,0.47 -0.09,0.04 -0.18,0.06 -0.27,0.06 -0.09,-0 -0.17,-0.02 -0.23,-0.05 -0.06,-0.04 -0.12,-0.09 -0.16,-0.16 -0.03,-0.05 -0.07,-0.12 -0.12,-0.23l-0.42 -0.94 0.26 -0.11 0.37 0.84c0.06,0.13 0.11,0.22 0.14,0.26 0.05,0.06 0.1,0.1 0.17,0.11 0.07,0.02 0.14,0.01 0.22,-0.03 0.08,-0.03 0.14,-0.09 0.19,-0.16 0.05,-0.07 0.07,-0.14 0.07,-0.23 -0,-0.08 -0.03,-0.19 -0.09,-0.31l-0.36 -0.81 0.26 -0.11 0.68 1.52 -0.23 0.1zm0.33 -0.69l0.24 -0.15c0.06,0.1 0.13,0.16 0.22,0.18 0.09,0.02 0.19,0.01 0.31,-0.04 0.12,-0.05 0.2,-0.12 0.23,-0.19 0.04,-0.07 0.04,-0.14 0.01,-0.21 -0.03,-0.06 -0.07,-0.09 -0.14,-0.1 -0.05,-0.01 -0.15,0 -0.3,0.03 -0.21,0.04 -0.36,0.05 -0.45,0.05 -0.09,-0 -0.16,-0.03 -0.23,-0.07 -0.06,-0.04 -0.11,-0.1 -0.15,-0.18 -0.03,-0.07 -0.04,-0.14 -0.04,-0.21 0.01,-0.07 0.03,-0.14 0.06,-0.2 0.03,-0.05 0.07,-0.1 0.13,-0.15 0.06,-0.05 0.13,-0.09 0.21,-0.13 0.12,-0.05 0.23,-0.08 0.34,-0.09 0.11,-0.01 0.19,0.01 0.26,0.05 0.07,0.04 0.13,0.11 0.19,0.2l-0.24 0.15c-0.05,-0.07 -0.11,-0.12 -0.18,-0.14 -0.07,-0.02 -0.16,-0.01 -0.26,0.04 -0.12,0.05 -0.19,0.11 -0.23,0.17 -0.03,0.06 -0.04,0.12 -0.01,0.17 0.01,0.03 0.04,0.06 0.07,0.08 0.03,0.02 0.08,0.03 0.13,0.02 0.03,-0 0.12,-0.01 0.26,-0.04 0.2,-0.03 0.35,-0.05 0.43,-0.05 0.09,-0 0.16,0.02 0.23,0.06 0.07,0.04 0.12,0.1 0.16,0.19 0.04,0.09 0.05,0.18 0.03,0.28 -0.02,0.1 -0.06,0.19 -0.14,0.27 -0.08,0.08 -0.17,0.15 -0.29,0.2 -0.2,0.09 -0.37,0.11 -0.51,0.08 -0.14,-0.04 -0.26,-0.13 -0.36,-0.28zm1.59 -0.17l0.2 -1.03 -0.84 -0.5 0.32 -0.14 0.4 0.25c0.07,0.05 0.13,0.09 0.18,0.12 0.02,-0.08 0.03,-0.15 0.04,-0.22l0.09 -0.47 0.31 -0.14 -0.19 0.96 0.9 0.54 -0.31 0.14 -0.52 -0.33 -0.12 -0.08 -0.15 0.76 -0.31 0.14zm1.9 -0.15l-0.94 -2.1 0.23 -0.1 0.09 0.2c0.02,-0.1 0.06,-0.19 0.11,-0.26 0.05,-0.07 0.13,-0.13 0.23,-0.17 0.13,-0.06 0.26,-0.08 0.39,-0.05 0.13,0.02 0.25,0.08 0.35,0.18 0.1,0.1 0.19,0.22 0.25,0.37 0.07,0.15 0.1,0.31 0.1,0.46 -0,0.15 -0.04,0.28 -0.12,0.39 -0.08,0.11 -0.17,0.2 -0.29,0.25 -0.09,0.04 -0.17,0.05 -0.25,0.05 -0.08,-0.01 -0.16,-0.03 -0.23,-0.06l0.33 0.74 -0.26 0.11zm-0.36 -1.44c0.09,0.19 0.19,0.32 0.31,0.38 0.12,0.06 0.24,0.06 0.35,0.01 0.11,-0.05 0.19,-0.14 0.23,-0.28 0.04,-0.13 0.01,-0.3 -0.08,-0.5 -0.09,-0.19 -0.19,-0.32 -0.31,-0.38 -0.12,-0.06 -0.24,-0.07 -0.35,-0.02 -0.11,0.05 -0.18,0.14 -0.22,0.28 -0.04,0.14 -0.01,0.31 0.07,0.5zm1.73 0.13l-0.68 -1.52 0.23 -0.1 0.1 0.23c0.01,-0.13 0.03,-0.23 0.07,-0.29 0.03,-0.06 0.08,-0.1 0.14,-0.13 0.09,-0.04 0.19,-0.05 0.3,-0.04l0.01 0.28c-0.08,-0.01 -0.15,0 -0.21,0.03 -0.06,0.03 -0.1,0.06 -0.13,0.12 -0.03,0.05 -0.04,0.11 -0.03,0.18 0.01,0.1 0.04,0.21 0.09,0.32l0.35 0.79 -0.26 0.11zm1.79 -1.39l0.28 -0.08c0.03,0.17 0,0.33 -0.07,0.46 -0.07,0.14 -0.2,0.24 -0.38,0.32 -0.22,0.1 -0.43,0.11 -0.62,0.03 -0.19,-0.08 -0.34,-0.24 -0.45,-0.49 -0.11,-0.25 -0.14,-0.48 -0.07,-0.68 0.07,-0.2 0.21,-0.35 0.42,-0.44 0.2,-0.09 0.4,-0.1 0.59,-0.01 0.19,0.08 0.34,0.25 0.45,0.5 0.01,0.02 0.02,0.04 0.03,0.07l-1.13 0.5c0.08,0.16 0.19,0.27 0.31,0.32 0.12,0.05 0.25,0.05 0.38,-0.01 0.09,-0.04 0.16,-0.1 0.21,-0.18 0.04,-0.08 0.06,-0.18 0.05,-0.31zm-1.03 -0.04l0.85 -0.38c-0.07,-0.12 -0.14,-0.2 -0.23,-0.24 -0.13,-0.06 -0.25,-0.07 -0.38,-0.01 -0.12,0.05 -0.2,0.14 -0.24,0.25 -0.04,0.11 -0.04,0.24 0.01,0.38zm1.53 -0.14l0.24 -0.15c0.06,0.1 0.13,0.16 0.22,0.18 0.09,0.02 0.19,0.01 0.31,-0.04 0.12,-0.05 0.2,-0.12 0.23,-0.19 0.04,-0.07 0.04,-0.14 0.01,-0.21 -0.03,-0.06 -0.07,-0.09 -0.14,-0.1 -0.05,-0.01 -0.15,0 -0.3,0.03 -0.21,0.04 -0.36,0.05 -0.45,0.05 -0.09,-0 -0.16,-0.03 -0.23,-0.07 -0.06,-0.04 -0.11,-0.1 -0.15,-0.18 -0.03,-0.07 -0.04,-0.14 -0.04,-0.21 0.01,-0.07 0.03,-0.14 0.06,-0.2 0.03,-0.05 0.07,-0.1 0.13,-0.15 0.06,-0.05 0.13,-0.09 0.21,-0.13 0.12,-0.05 0.23,-0.08 0.34,-0.09 0.11,-0.01 0.19,0.01 0.26,0.05 0.07,0.04 0.13,0.11 0.19,0.2l-0.24 0.15c-0.05,-0.07 -0.11,-0.12 -0.18,-0.14 -0.07,-0.02 -0.16,-0.01 -0.26,0.04 -0.12,0.05 -0.19,0.11 -0.23,0.17 -0.03,0.06 -0.04,0.12 -0.01,0.17 0.01,0.03 0.04,0.06 0.07,0.08 0.03,0.02 0.08,0.03 0.13,0.02 0.03,-0 0.12,-0.01 0.26,-0.04 0.2,-0.03 0.35,-0.05 0.43,-0.05 0.09,-0 0.16,0.02 0.23,0.06 0.07,0.04 0.12,0.1 0.16,0.19 0.04,0.09 0.05,0.18 0.03,0.28 -0.02,0.1 -0.06,0.19 -0.14,0.27 -0.08,0.08 -0.17,0.15 -0.29,0.2 -0.2,0.09 -0.37,0.11 -0.51,0.08 -0.14,-0.04 -0.26,-0.13 -0.36,-0.28zm1.46 -0.65l0.24 -0.15c0.06,0.1 0.13,0.16 0.22,0.18 0.09,0.03 0.19,0.01 0.31,-0.04 0.12,-0.05 0.2,-0.12 0.23,-0.19 0.04,-0.07 0.04,-0.14 0.01,-0.21 -0.03,-0.06 -0.07,-0.09 -0.14,-0.1 -0.05,-0.01 -0.15,0 -0.3,0.03 -0.21,0.04 -0.36,0.05 -0.45,0.05 -0.09,-0 -0.16,-0.03 -0.23,-0.07 -0.06,-0.04 -0.11,-0.1 -0.15,-0.18 -0.03,-0.07 -0.04,-0.14 -0.04,-0.21 0.01,-0.07 0.03,-0.14 0.06,-0.2 0.03,-0.05 0.07,-0.1 0.13,-0.15 0.06,-0.05 0.13,-0.09 0.21,-0.13 0.12,-0.05 0.23,-0.08 0.34,-0.09 0.11,-0.01 0.19,0.01 0.26,0.05 0.07,0.04 0.13,0.11 0.19,0.2l-0.24 0.15c-0.05,-0.07 -0.11,-0.12 -0.18,-0.14 -0.07,-0.02 -0.16,-0.01 -0.26,0.04 -0.12,0.05 -0.19,0.11 -0.23,0.17 -0.03,0.06 -0.04,0.12 -0.01,0.17 0.01,0.03 0.04,0.06 0.07,0.08 0.03,0.02 0.08,0.03 0.13,0.02 0.03,-0 0.12,-0.01 0.26,-0.04 0.2,-0.03 0.35,-0.05 0.43,-0.05 0.09,-0 0.16,0.02 0.23,0.06 0.07,0.04 0.12,0.1 0.16,0.19 0.04,0.09 0.05,0.18 0.03,0.28 -0.02,0.1 -0.06,0.19 -0.14,0.27 -0.08,0.08 -0.17,0.15 -0.29,0.2 -0.2,0.09 -0.37,0.11 -0.51,0.08 -0.14,-0.04 -0.26,-0.13 -0.36,-0.28zm1.77 -0.24l-0.68 -1.52 0.23 -0.1 0.1 0.21c0.01,-0.1 0.05,-0.18 0.11,-0.26 0.06,-0.08 0.14,-0.14 0.24,-0.19 0.11,-0.05 0.21,-0.07 0.31,-0.05 0.09,0.01 0.17,0.06 0.24,0.13 0.04,-0.23 0.16,-0.39 0.35,-0.48 0.15,-0.07 0.29,-0.08 0.4,-0.03 0.12,0.05 0.22,0.16 0.29,0.33l0.46 1.04 -0.26 0.11 -0.43 -0.96c-0.05,-0.1 -0.09,-0.17 -0.12,-0.21 -0.04,-0.04 -0.08,-0.06 -0.14,-0.07 -0.06,-0.01 -0.11,0 -0.17,0.03 -0.11,0.05 -0.18,0.12 -0.22,0.23 -0.04,0.1 -0.02,0.23 0.05,0.39l0.39 0.88 -0.26 0.11 -0.44 -0.99c-0.05,-0.11 -0.11,-0.19 -0.18,-0.23 -0.07,-0.04 -0.15,-0.04 -0.24,0.01 -0.07,0.03 -0.13,0.08 -0.18,0.15 -0.04,0.07 -0.06,0.14 -0.06,0.23 0.01,0.09 0.04,0.2 0.1,0.34l0.35 0.79 -0.26 0.11zm2 -1.8c-0.12,-0.28 -0.14,-0.52 -0.04,-0.73 0.08,-0.17 0.21,-0.3 0.4,-0.38 0.21,-0.09 0.41,-0.1 0.6,-0.02 0.19,0.08 0.34,0.24 0.45,0.48 0.09,0.2 0.13,0.36 0.12,0.5 -0.01,0.14 -0.06,0.26 -0.14,0.37 -0.08,0.11 -0.19,0.2 -0.33,0.26 -0.21,0.09 -0.41,0.1 -0.61,0.03 -0.19,-0.08 -0.34,-0.24 -0.46,-0.5zm0.26 -0.12c0.09,0.19 0.19,0.32 0.32,0.38 0.13,0.06 0.26,0.06 0.39,0 0.13,-0.06 0.21,-0.15 0.25,-0.29 0.04,-0.13 0.02,-0.3 -0.07,-0.5 -0.08,-0.19 -0.19,-0.31 -0.32,-0.37 -0.13,-0.06 -0.26,-0.06 -0.38,-0 -0.13,0.06 -0.21,0.15 -0.26,0.29 -0.04,0.13 -0.02,0.3 0.07,0.49zm2.21 -0.08l-1.25 -1.26 0.28 -0.12 0.73 0.76c0.08,0.08 0.16,0.17 0.23,0.26 -0.01,-0.09 -0.02,-0.2 -0.03,-0.33l-0.08 -1.08 0.26 -0.12 0.1 1.78 -0.25 0.11zm0.24 -2.27l-0.13 -0.29 0.26 -0.11 0.13 0.29 -0.26 0.11zm0.8 1.8l-0.68 -1.52 0.26 -0.11 0.68 1.52 -0.26 0.11zm0.65 -0.29l-0.68 -1.52 0.23 -0.1 0.1 0.22c0.04,-0.21 0.16,-0.37 0.37,-0.46 0.09,-0.04 0.18,-0.06 0.27,-0.06 0.09,-0 0.17,0.02 0.23,0.05 0.06,0.04 0.12,0.09 0.16,0.15 0.03,0.04 0.07,0.12 0.13,0.24l0.42 0.93 -0.26 0.11 -0.41 -0.92c-0.05,-0.1 -0.09,-0.18 -0.13,-0.22 -0.04,-0.04 -0.1,-0.07 -0.16,-0.08 -0.06,-0.01 -0.13,0 -0.2,0.03 -0.11,0.05 -0.19,0.13 -0.24,0.23 -0.05,0.1 -0.03,0.25 0.06,0.45l0.37 0.83 -0.26 0.11zm1.64 -0.58l0.26 -0.08c0.04,0.07 0.1,0.12 0.16,0.13 0.09,0.02 0.18,0 0.29,-0.05 0.12,-0.05 0.2,-0.12 0.24,-0.19 0.04,-0.08 0.06,-0.16 0.04,-0.26 -0.01,-0.06 -0.05,-0.17 -0.13,-0.34 -0.05,0.18 -0.16,0.31 -0.33,0.39 -0.21,0.09 -0.4,0.09 -0.59,-0.01 -0.18,-0.1 -0.32,-0.25 -0.41,-0.46 -0.06,-0.14 -0.1,-0.29 -0.1,-0.44 -0,-0.15 0.03,-0.27 0.1,-0.38 0.07,-0.11 0.17,-0.2 0.31,-0.26 0.18,-0.08 0.36,-0.07 0.54,0.02l-0.08 -0.19 0.24 -0.11 0.58 1.31c0.11,0.24 0.16,0.41 0.15,0.53 -0,0.12 -0.05,0.23 -0.12,0.34 -0.08,0.1 -0.19,0.19 -0.35,0.26 -0.18,0.08 -0.34,0.11 -0.49,0.07 -0.15,-0.03 -0.26,-0.13 -0.33,-0.29zm-0.2 -1.01c0.09,0.2 0.19,0.33 0.31,0.38 0.12,0.06 0.24,0.06 0.36,0 0.12,-0.05 0.2,-0.14 0.24,-0.27 0.04,-0.13 0.02,-0.29 -0.07,-0.48 -0.08,-0.19 -0.19,-0.31 -0.31,-0.36 -0.12,-0.06 -0.24,-0.06 -0.36,-0.01 -0.11,0.05 -0.19,0.14 -0.23,0.27 -0.04,0.13 -0.02,0.28 0.06,0.47zm1.89 0.1l-0.13 -0.29 0.29 -0.13 0.13 0.29 -0.29 0.13zm1.48 -1.33l0.27 -0.08c0.05,0.19 0.04,0.35 -0.03,0.5 -0.07,0.15 -0.19,0.26 -0.35,0.33 -0.21,0.09 -0.4,0.1 -0.59,0.02 -0.19,-0.08 -0.34,-0.25 -0.45,-0.5 -0.07,-0.16 -0.11,-0.32 -0.11,-0.47 -0,-0.15 0.04,-0.28 0.12,-0.39 0.08,-0.11 0.19,-0.2 0.32,-0.25 0.16,-0.07 0.32,-0.09 0.46,-0.06 0.14,0.04 0.26,0.13 0.36,0.27l-0.23 0.15c-0.07,-0.09 -0.15,-0.15 -0.23,-0.17 -0.08,-0.02 -0.17,-0.02 -0.25,0.02 -0.13,0.06 -0.21,0.15 -0.25,0.28 -0.04,0.13 -0.01,0.29 0.07,0.49 0.09,0.2 0.2,0.33 0.31,0.39 0.12,0.06 0.24,0.06 0.37,0 0.1,-0.05 0.17,-0.11 0.21,-0.21 0.04,-0.09 0.04,-0.21 0,-0.34zm0.28 -0.37c-0.12,-0.28 -0.14,-0.52 -0.04,-0.73 0.08,-0.17 0.21,-0.3 0.4,-0.38 0.21,-0.09 0.41,-0.1 0.6,-0.02 0.19,0.08 0.34,0.24 0.45,0.48 0.09,0.2 0.13,0.36 0.12,0.5 -0.01,0.14 -0.06,0.26 -0.14,0.37 -0.08,0.11 -0.19,0.2 -0.33,0.26 -0.21,0.09 -0.41,0.1 -0.61,0.03 -0.19,-0.08 -0.34,-0.24 -0.46,-0.5zm0.26 -0.12c0.09,0.19 0.19,0.32 0.32,0.38 0.13,0.06 0.26,0.06 0.39,0 0.13,-0.06 0.21,-0.15 0.25,-0.29 0.04,-0.13 0.02,-0.3 -0.07,-0.5 -0.08,-0.19 -0.19,-0.31 -0.32,-0.37 -0.13,-0.06 -0.26,-0.06 -0.38,-0 -0.13,0.06 -0.21,0.15 -0.26,0.29 -0.04,0.13 -0.02,0.3 0.07,0.49zm1.8 0.11l-0.68 -1.52 0.23 -0.1 0.1 0.21c0.01,-0.1 0.05,-0.18 0.11,-0.26 0.06,-0.08 0.14,-0.14 0.24,-0.19 0.11,-0.05 0.21,-0.07 0.31,-0.05 0.09,0.01 0.17,0.06 0.24,0.13 0.04,-0.23 0.16,-0.39 0.35,-0.48 0.15,-0.07 0.29,-0.08 0.4,-0.03 0.12,0.05 0.22,0.16 0.29,0.33l0.46 1.04 -0.26 0.11 -0.43 -0.96c-0.05,-0.1 -0.09,-0.17 -0.12,-0.21 -0.04,-0.04 -0.08,-0.06 -0.14,-0.07 -0.06,-0.01 -0.11,0 -0.17,0.03 -0.11,0.05 -0.18,0.12 -0.22,0.23 -0.04,0.1 -0.02,0.23 0.05,0.39l0.39 0.88 -0.26 0.11 -0.44 -0.99c-0.05,-0.11 -0.11,-0.19 -0.18,-0.23 -0.07,-0.04 -0.15,-0.04 -0.24,0.01 -0.07,0.03 -0.13,0.08 -0.17,0.15 -0.04,0.07 -0.06,0.14 -0.06,0.23 0.01,0.09 0.04,0.2 0.1,0.34l0.35 0.79 -0.26 0.11z"/>
 </g>
</svg>
