<?xml version="1.0" encoding="UTF-8"?>
<!DOCTYPE svg PUBLIC "-//W3C//DTD SVG 1.1//EN" "http://www.w3.org/Graphics/SVG/1.1/DTD/svg11.dtd">
<!-- Creator: CorelDRAW 2020 (64-Bit) -->
<svg xmlns="http://www.w3.org/2000/svg" xml:space="preserve" width="0.192524in" height="0.189965in" version="1.1" style="shape-rendering:geometricPrecision; text-rendering:geometricPrecision; image-rendering:optimizeQuality; fill-rule:evenodd; clip-rule:evenodd"
viewBox="0 0 34.38 33.92"
 xmlns:xlink="http://www.w3.org/1999/xlink"
 xmlns:xodm="http://www.corel.com/coreldraw/odm/2003">
 <defs>
  <style type="text/css">
   <![CDATA[
    .str0 {stroke:#F2DDB0;stroke-width:2.48;stroke-miterlimit:2.61313}
    .fil1 {fill:none}
    .fil0 {fill:#F2DDB0}
   ]]>
  </style>
 </defs>
 <g id="Layer_x0020_1">
  <metadata id="CorelCorpID_0Corel-Layer"/>
  <path class="fil0 str0" d="M17.85 4.67c6.19,0 11.2,5.02 11.2,11.2 0,6.19 -5.02,11.2 -11.2,11.2 -1.71,0 -3.33,-0.38 -4.78,-1.07 -0.99,-0.47 -4.93,1.92 -5.74,1.2 -0.88,-0.79 1.39,-4.72 0.8,-5.75 -0.94,-1.64 -1.49,-3.55 -1.49,-5.58 0,-6.19 5.02,-11.2 11.2,-11.2z"/>
  <path class="fil1 str0" d="M18.26 1.24c8.22,0 14.88,6.66 14.88,14.88 0,8.22 -6.66,14.88 -14.88,14.88 -1.97,0 -2.99,-0.65 -4.82,-0.93 -1.95,-0.31 -10.46,3.8 -11.93,2.27 -1.37,-1.42 3.05,-9.38 2.41,-12.02 -0.42,-1.74 -0.53,-2.3 -0.53,-4.2 0,-8.22 6.66,-14.88 14.88,-14.88z"/>
 </g>
</svg>
