<?xml version="1.0" encoding="UTF-8"?>
<!DOCTYPE svg PUBLIC "-//W3C//DTD SVG 1.1//EN" "http://www.w3.org/Graphics/SVG/1.1/DTD/svg11.dtd">
<!-- Creator: CorelDRAW 2020 (64-Bit) -->
<svg xmlns="http://www.w3.org/2000/svg" xml:space="preserve" width="0.160606in" height="0.160382in" version="1.1" style="shape-rendering:geometricPrecision; text-rendering:geometricPrecision; image-rendering:optimizeQuality; fill-rule:evenodd; clip-rule:evenodd"
viewBox="0 0 27.27 27.23"
 xmlns:xlink="http://www.w3.org/1999/xlink"
 xmlns:xodm="http://www.corel.com/coreldraw/odm/2003">
 <defs>
  <style type="text/css">
   <![CDATA[
    .fil0 {fill:#3C1400}
   ]]>
  </style>
 </defs>
 <g id="Layer_x0020_1">
  <metadata id="CorelCorpID_0Corel-Layer"/>
  <path class="fil0" d="M-0 27.23c2.1,-0.17 3.7,-0.93 5.73,-1.38 3.45,-0.78 9.4,4.5 16.9,-2.14 5.7,-5.04 6.45,-13.97 0.57,-19.75 -9.56,-9.4 -25.47,-0.75 -22.72,12.42 0.49,2.32 1.58,2.91 1.02,5.22 -0.5,2.07 -1.05,3.69 -1.5,5.64zm3.61 -3.62c1.61,-0.14 2.9,-0.97 4.45,-0.58 1.39,0.35 2.23,1.14 4.18,1.4 3.67,0.5 6.79,-0.95 8.78,-2.73 4.83,-4.34 4.96,-11.52 0.16,-16.13 -4.63,-4.45 -12.4,-3.5 -15.86,0.82 -1.66,2.07 -2.99,5.23 -2.46,8.84 0.8,5.41 2.3,1.55 0.75,8.38z"/>
  <path class="fil0" d="M15.02 16.52c-2.33,-0.99 -3.29,-2.03 -4.42,-4 2.25,-4.67 -1.89,-6.84 -3.14,-3.59 -1.13,2.91 2.13,6.74 3.38,7.78 1.35,1.13 5.67,3.97 8.25,2.26 1.45,-0.96 1.39,-2.7 -0.25,-3.56 -2.61,-1.37 -1.89,0.34 -3.81,1.11z"/>
 </g>
</svg>
