<?xml version="1.0" encoding="UTF-8"?>
<!DOCTYPE svg PUBLIC "-//W3C//DTD SVG 1.1//EN" "http://www.w3.org/Graphics/SVG/1.1/DTD/svg11.dtd">
<!-- Creator: CorelDRAW 2020 (64-Bit) -->
<svg xmlns="http://www.w3.org/2000/svg" xml:space="preserve" width="0.160606in" height="0.160382in" version="1.1" style="shape-rendering:geometricPrecision; text-rendering:geometricPrecision; image-rendering:optimizeQuality; fill-rule:evenodd; clip-rule:evenodd"
viewBox="0 0 66.63 66.53"
 xmlns:xlink="http://www.w3.org/1999/xlink"
 xmlns:xodm="http://www.corel.com/coreldraw/odm/2003">
 <defs>
  <style type="text/css">
   <![CDATA[
    .fil0 {fill:#F2DDB0}
   ]]>
  </style>
 </defs>
 <g id="Layer_x0020_1">
  <metadata id="CorelCorpID_0Corel-Layer"/>
  <path class="fil0" d="M-0 66.53c5.12,-0.43 9.04,-2.26 14,-3.38 8.43,-1.9 22.96,10.99 41.29,-5.22 13.93,-12.32 15.75,-34.15 1.39,-48.26 -23.36,-22.97 -62.23,-1.84 -55.51,30.34 1.19,5.67 3.85,7.12 2.49,12.75 -1.23,5.06 -2.57,9.02 -3.66,13.78zm8.83 -8.83c3.94,-0.35 7.08,-2.38 10.88,-1.41 3.39,0.86 5.45,2.78 10.21,3.42 8.97,1.21 16.6,-2.33 21.45,-6.68 11.8,-10.6 12.11,-28.14 0.39,-39.41 -11.31,-10.87 -30.31,-8.54 -38.76,2.01 -4.06,5.07 -7.31,12.78 -6.01,21.61 1.94,13.22 5.63,3.78 1.84,20.47z"/>
  <path class="fil0" d="M36.71 40.38c-5.7,-2.41 -8.04,-4.97 -10.8,-9.77 5.49,-11.42 -4.62,-16.71 -7.68,-8.77 -2.75,7.12 5.21,16.46 8.25,19.01 3.31,2.77 13.85,9.71 20.15,5.52 3.55,-2.36 3.39,-6.61 -0.6,-8.7 -6.38,-3.34 -4.63,0.82 -9.32,2.71z"/>
 </g>
</svg>
