<?xml version="1.0" encoding="UTF-8" standalone="no"?>
<!-- Created with Inkscape (http://www.inkscape.org/) -->

<svg
   width="47.625mm"
   height="47.625mm"
   viewBox="0 0 47.625 47.625"
   version="1.1"
   id="svg1"
   xmlns="http://www.w3.org/2000/svg"
   xmlns:svg="http://www.w3.org/2000/svg">
  <defs
     id="defs1" />
  <g
     id="layer1"
     transform="translate(-61.03618,-70.875677)">
    <rect
       style="fill:#ffffff;stroke-width:0.0920001"
       id="rect1"
       width="47.625"
       height="47.625"
       x="61.036182"
       y="70.875679" />
    <path
       class="fil0"
       d="m 85.887312,110.34248 -5.881395,-7.86342 c 5.160888,1.81991 7.054315,3.63982 8.445063,1.75124 -1.189684,-1.03016 -5.981926,-2.4895 -7.825088,-3.17627 -4.038208,-1.493722 -3.183644,-2.094629 -5.077096,-4.446781 l 13.187039,4.996181 c 2.747992,1.08164 2.178305,1.116 3.870671,-0.12017 -5.160887,-2.523845 -14.494017,-5.185057 -18.247395,-7.039316 -1.357233,-0.669584 -2.396108,-2.523843 -3.16689,-3.639841 5.31167,1.28769 19.772185,7.897759 23.659597,8.910742 1.23995,0.326195 1.390746,0.20593 2.546905,-0.497907 C 95.28747,97.843417 77.358455,91.370687 72.549466,89.550781 69.147979,88.26309 68.176127,87.507646 66.936177,84.880802 l 32.423027,12.344539 c 2.010726,0.789767 2.379356,0.995798 3.937676,0.06879 C 102.04016,96.195317 75.73312,86.563483 70.404686,84.537532 67.271298,83.335688 63.853057,82.597412 62.512571,79.060615 L 107.77074,96.24681 c -0.63671,3.81154 -2.06098,1.734075 -8.243976,4.39529 -4.792241,2.06027 -10.020134,4.85884 -13.622691,9.68332 z"
       id="path12"
       style="clip-rule:evenodd;fill:#663300;fill-rule:evenodd;stroke-width:1.69613;image-rendering:optimizeQuality;shape-rendering:geometricPrecision;text-rendering:geometricPrecision" />
  </g>
</svg>
